# xmcd
#
# Track frame offsets: 
#        182
#        57282
#        103792
#        153952
#        192400
#
# Disc length: 3188 seconds
#
# Revision: 1
# Processed by: cddbd v1.5.2PL0 Copyright (c) Steve Scherf et al.
# Submitted via: ExactAudioCopy v0.99pb5
#
DISCID=3c0c7205
DTITLE=Monty Alexander - Just in Time CD2
DYEAR=1979
DGENRE=Jazz
TTITLE0=Just In Time (Comden_Green_Styne)
TTITLE1=Blue Bossa (Dorham)
TTITLE2=Black Orpheus (Bonfa)
TTITLE3=On Green Dolphin Street (Kaper_Washington)
TTITLE4=Soft Winds (Goodman)
EXTD=YEAR: 1996
EXTT0=
EXTT1=
EXTT2=
EXTT3=
EXTT4=
PLAYORDER=
